<svg xmlns="http://www.w3.org/2000/svg" version="1.1" xmlns:xlink="http://www.w3.org/1999/xlink" xmlns:svgjs="http://svgjs.dev/svgjs" width="2000" height="338" viewBox="0 0 2000 338"><g transform="matrix(1,0,0,1,-1.2112696095522324,0.0063775545779662934)"><svg viewBox="0 0 396 67" data-background-color="#ffffff" preserveAspectRatio="xMidYMid meet" height="338" width="2000" xmlns="http://www.w3.org/2000/svg" xmlns:xlink="http://www.w3.org/1999/xlink"><g id="tight-bounds" transform="matrix(1,0,0,1,0.24008861730862918,-0.0011890948302379911)"><svg viewBox="0 0 395.52 67.00222109467703" height="67.00222109467703" width="395.52"><g><svg viewBox="0 0 395.52 67.00222109467703" height="67.00222109467703" width="395.52"><g><svg viewBox="0 0 395.52 67.00222109467703" height="67.00222109467703" width="395.52"><g><svg viewBox="0 0 395.52 67.00222109467703" height="67.00222109467703" width="395.52"><g id="textblocktransform"><svg viewBox="0 0 395.52 67.00222109467703" height="67.00222109467703" width="395.52" id="textblock"><g><svg viewBox="0 0 395.52 67.00222109467703" height="67.00222109467703" width="395.52"><path d="M394.594 14.371C392.735 7.416 387.435 5.482 387.435 5.482 371.165-1.681 350.86-0.137 332.619 0.892 300.414 0.934 268.339 2.464 236.208 3.285 168.767 3.41 100.749 1.351 33.643 6.428 27.339 7.986-6.54 6.734 1.121 15.261 3.129 18.808 10.456 22.744 10.232 25.999 11.236 26.569 12.631 25.262 13.226 26.083 15.309 28.294 18.711 27.251 21.501 28.559 17.614 32.05 20.403 34.957 23.062 38.003 18.377 38.796 12.371 38.42 9.675 41.049 9.396 42.955 7.89 42.593 6.235 42.51 5.026 42.454 2.59 42.663 2.999 43.261 4.394 45.306-1.594 46.488 2.162 48.491-0.422 50.661 3.948 52.539 3.353 54.889 3.278 55.362 3.687 55.766 4.338 55.877 7.22 56.475 3.018 57.644 3.464 58.909 33.029 67.561 65.104 61.58 95.394 65.558 103.259 62.776 97.346 66.546 100.489 65.961 102.943 65.28 104.728 68.104 107.499 66.504 107.927 66.045 107.276 64.96 108.8 65.169 109.6 65.28 110.307 65.252 110.418 64.612 110.586 63.652 109.117 64.251 108.726 63.75 112.947 61.218 111.906 67.241 115.866 66.991 115.68 66.254 114.528 65.196 116.889 65.336 119.232 64.278 119.306 63.402 121.389 65.781 121.463 66.295 121.835 66.657 122.43 66.907 128.938 64.32 135.409 67.825 142.233 66.657 146.417 65.377 150.433 67.352 154.672 66.866 156.16 66.476 157.666 65.781 159.098 66.949 176.632 67.199 195.319 66.156 211.943 66.991 256.364 65.433 303.836 67.631 350.674 65.572 361.719 64.779 373.192 63.652 383.958 62.748 383.958 62.748 392.679 60.272 392.679 49.145S394.538 39.408 394.817 30.548C395.096 21.687 396.398 21.326 394.538 14.371Z" opacity="1" fill="#056dae" data-fill-palette-color="tertiary"></path><g transform="matrix(1,0,0,1,55.76832,26.230666666666668)"><svg width="283.98335999999995" viewBox="0.95 -40.15 797.7299999999999 40.849999999999994" height="14.540887761343695" data-palette-color="#ffffff"><path d="M34.3-29.45L28.3-22.3Q26.65-24.5 24.4-25.78 22.15-27.05 19.95-27.05L19.95-27.05Q18.2-27.05 16.68-26.35 15.15-25.65 14-24.4 12.85-23.15 12.23-21.45 11.6-19.75 11.6-17.75L11.6-17.75Q11.6-15.75 12.23-14.03 12.85-12.3 14-11.05 15.15-9.8 16.68-9.1 18.2-8.4 19.95-8.4L19.95-8.4Q22-8.4 24.28-9.53 26.55-10.65 28.3-12.5L28.3-12.5 34.3-6.1Q32.4-4.05 29.95-2.5 27.5-0.95 24.8-0.13 22.1 0.7 19.45 0.7L19.45 0.7Q15.4 0.7 12.05-0.68 8.7-2.05 6.2-4.5 3.7-6.95 2.33-10.33 0.95-13.7 0.95-17.65L0.95-17.65Q0.95-21.55 2.35-24.83 3.75-28.1 6.33-30.55 8.9-33 12.33-34.35 15.75-35.7 19.8-35.7L19.8-35.7Q22.5-35.7 25.15-34.93 27.8-34.15 30.18-32.75 32.55-31.35 34.3-29.45L34.3-29.45ZM56.25 0L56.25-14.35Q56.25-16.4 55.17-17.57 54.1-18.75 52.35-18.75L52.35-18.75Q50.3-18.7 49.1-17.25 47.9-15.8 47.9-13.45L47.9-13.45 45.6-13.45Q45.6-17.9 46.92-21.1 48.25-24.3 50.7-25.95 53.15-27.6 56.55-27.6L56.55-27.6Q59.5-27.6 61.7-26.35 63.9-25.1 65.12-22.75 66.35-20.4 66.35-17.25L66.35-17.25 66.35 0 56.25 0ZM37.8 0L37.8-37.1 47.9-37.1 47.9 0 37.8 0ZM87.7-11.4L82.2-11.4Q80.7-11.4 79.92-10.78 79.15-10.15 79.15-8.85L79.15-8.85Q79.15-7.6 79.95-6.88 80.75-6.15 82.2-6.15L82.2-6.15Q83.25-6.15 84.15-6.5 85.05-6.85 85.75-7.48 86.45-8.1 86.8-8.95L86.8-8.95 88.05-5.35Q87.05-2.6 84.7-1.07 82.35 0.45 78.85 0.45L78.85 0.45Q75.95 0.45 73.9-0.63 71.85-1.7 70.75-3.63 69.65-5.55 69.65-8.1L69.65-8.1Q69.65-12.05 72.35-14.18 75.05-16.3 80.15-16.35L80.15-16.35 87.7-16.35 87.7-11.4ZM86.8 0L86.8-16.45Q86.8-18.15 85.6-19.1 84.4-20.05 82.1-20.05L82.1-20.05Q80.45-20.05 78.3-19.55 76.15-19.05 73.9-18.1L73.9-18.1 71.4-24.8Q73.65-25.7 75.85-26.35 78.05-27 80.22-27.3 82.4-27.6 84.5-27.6L84.5-27.6Q90.25-27.6 93.47-25 96.7-22.4 96.7-17.65L96.7-17.65 96.7 0 86.8 0ZM113.44-33.35L113.44-10.05Q113.44-8.75 114.07-8.1 114.69-7.45 115.74-7.45L115.74-7.45Q116.34-7.45 117.14-7.68 117.94-7.9 118.84-8.25L118.84-8.25 120.64-1.3Q119.24-0.5 117.22-0.03 115.19 0.45 113.09 0.45L113.09 0.45Q110.19 0.45 108.02-0.6 105.84-1.65 104.62-3.68 103.39-5.7 103.39-8.5L103.39-8.5 103.39-33.35 113.44-33.35ZM99.64-19.35L99.64-25.8 120.14-25.8 120.14-19.35 99.64-19.35ZM146.54 0L134.79-35.05 145.89-35.05 153.29-6.45 151.09-6.45 158.44-35.05 168.59-35.05 175.99-6.45 173.79-6.45 181.09-35.05 191.74-35.05 179.89 0 169.19 0 162.14-26.75 164.44-26.75 157.19 0 146.54 0ZM194.64 0L194.64-27.2 204.74-27.2 204.74 0 194.64 0ZM199.74-40.15L199.74-40.15Q202.03-40.15 203.49-38.68 204.94-37.2 204.94-34.95L204.94-34.95Q204.94-32.65 203.49-31.2 202.03-29.75 199.74-29.75L199.74-29.75Q197.49-29.75 196.01-31.2 194.53-32.65 194.53-34.95L194.53-34.95Q194.53-37.2 196.01-38.68 197.49-40.15 199.74-40.15ZM222.23-33.35L222.23-10.05Q222.23-8.75 222.86-8.1 223.48-7.45 224.53-7.45L224.53-7.45Q225.13-7.45 225.93-7.68 226.73-7.9 227.63-8.25L227.63-8.25 229.43-1.3Q228.03-0.5 226.01-0.03 223.98 0.45 221.88 0.45L221.88 0.45Q218.98 0.45 216.81-0.6 214.63-1.65 213.41-3.68 212.18-5.7 212.18-8.5L212.18-8.5 212.18-33.35 222.23-33.35ZM208.43-19.35L208.43-25.8 228.93-25.8 228.93-19.35 208.43-19.35ZM251.98 0L251.98-14.35Q251.98-16.4 250.91-17.57 249.83-18.75 248.08-18.75L248.08-18.75Q246.03-18.7 244.83-17.25 243.63-15.8 243.63-13.45L243.63-13.45 241.33-13.45Q241.33-17.9 242.66-21.1 243.98-24.3 246.43-25.95 248.88-27.6 252.28-27.6L252.28-27.6Q255.23-27.6 257.43-26.35 259.63-25.1 260.86-22.75 262.08-20.4 262.08-17.25L262.08-17.25 262.08 0 251.98 0ZM233.53 0L233.53-37.1 243.63-37.1 243.63 0 233.53 0ZM294.82-2.35L277.48-35.05 287.88-35.05 295.52-20.75 302.98-35.05 313.38-35.05 296.13-2.35 294.82-2.35ZM290.32 0L290.32-15.6 300.73-15.6 300.73 0 290.32 0ZM329.07-27.55L329.07-27.55Q333.62-27.55 337.02-25.83 340.42-24.1 342.3-20.98 344.17-17.85 344.17-13.6L344.17-13.6Q344.17-9.4 342.3-6.25 340.42-3.1 337.02-1.38 333.62 0.35 329.07 0.35L329.07 0.35Q324.47 0.35 321.07-1.38 317.67-3.1 315.8-6.25 313.92-9.4 313.92-13.6L313.92-13.6Q313.92-17.85 315.8-20.98 317.67-24.1 321.07-25.83 324.47-27.55 329.07-27.55ZM329.07-19.55L329.07-19.55Q327.57-19.55 326.45-18.8 325.32-18.05 324.72-16.68 324.12-15.3 324.12-13.5L324.12-13.5Q324.12-11.65 324.72-10.3 325.32-8.95 326.45-8.2 327.57-7.45 329.07-7.45L329.07-7.45Q330.57-7.45 331.67-8.2 332.77-8.95 333.37-10.3 333.97-11.65 333.97-13.5L333.97-13.5Q333.97-15.3 333.37-16.68 332.77-18.05 331.67-18.8 330.57-19.55 329.07-19.55ZM357.52-27.2L357.52-12.8Q357.52-10.8 358.52-9.63 359.52-8.45 361.17-8.45L361.17-8.45Q363.12-8.5 364.25-9.95 365.37-11.4 365.37-13.75L365.37-13.75 367.67-13.75Q367.67-9.25 366.37-6.1 365.07-2.95 362.69-1.25 360.32 0.45 357.02 0.45L357.02 0.45Q354.17 0.45 352-0.85 349.82-2.15 348.62-4.48 347.42-6.8 347.42-9.95L347.42-9.95 347.42-27.2 357.52-27.2ZM365.37 0L365.37-27.2 375.47-27.2 375.47 0 365.37 0ZM400.22-27.6L400.22-18.5Q397.62-18.85 395.69-18.25 393.77-17.65 392.72-16.32 391.67-15 391.67-13L391.67-13 389.37-13.45Q389.37-17.8 390.69-21 392.02-24.2 394.47-25.9 396.92-27.6 400.22-27.6L400.22-27.6ZM381.57 0L381.57-27.2 391.67-27.2 391.67 0 381.57 0ZM431.16-2.35L413.81-35.05 424.21-35.05 431.86-20.75 439.31-35.05 449.71-35.05 432.46-2.35 431.16-2.35ZM426.66 0L426.66-15.6 437.06-15.6 437.06 0 426.66 0ZM465.41-27.55L465.41-27.55Q469.96-27.55 473.36-25.83 476.76-24.1 478.63-20.98 480.51-17.85 480.51-13.6L480.51-13.6Q480.51-9.4 478.63-6.25 476.76-3.1 473.36-1.38 469.96 0.35 465.41 0.35L465.41 0.35Q460.81 0.35 457.41-1.38 454.01-3.1 452.13-6.25 450.26-9.4 450.26-13.6L450.26-13.6Q450.26-17.85 452.13-20.98 454.01-24.1 457.41-25.83 460.81-27.55 465.41-27.55ZM465.41-19.55L465.41-19.55Q463.91-19.55 462.79-18.8 461.66-18.05 461.06-16.68 460.46-15.3 460.46-13.5L460.46-13.5Q460.46-11.65 461.06-10.3 461.66-8.95 462.79-8.2 463.91-7.45 465.41-7.45L465.41-7.45Q466.91-7.45 468.01-8.2 469.11-8.95 469.71-10.3 470.31-11.65 470.31-13.5L470.31-13.5Q470.31-15.3 469.71-16.68 469.11-18.05 468.01-18.8 466.91-19.55 465.41-19.55ZM493.86-27.2L493.86-12.8Q493.86-10.8 494.86-9.63 495.86-8.45 497.51-8.45L497.51-8.45Q499.46-8.5 500.58-9.95 501.71-11.4 501.71-13.75L501.71-13.75 504.01-13.75Q504.01-9.25 502.71-6.1 501.41-2.95 499.03-1.25 496.66 0.45 493.36 0.45L493.36 0.45Q490.51 0.45 488.33-0.85 486.16-2.15 484.96-4.48 483.76-6.8 483.76-9.95L483.76-9.95 483.76-27.2 493.86-27.2ZM501.71 0L501.71-27.2 511.81-27.2 511.81 0 501.71 0ZM529.3-33.35L529.3-10.05Q529.3-8.75 529.93-8.1 530.55-7.45 531.6-7.45L531.6-7.45Q532.2-7.45 533-7.68 533.8-7.9 534.7-8.25L534.7-8.25 536.5-1.3Q535.1-0.5 533.08-0.03 531.05 0.45 528.95 0.45L528.95 0.45Q526.05 0.45 523.88-0.6 521.7-1.65 520.48-3.68 519.25-5.7 519.25-8.5L519.25-8.5 519.25-33.35 529.3-33.35ZM515.5-19.35L515.5-25.8 536-25.8 536-19.35 515.5-19.35ZM549.7-27.2L549.7-12.8Q549.7-10.8 550.7-9.63 551.7-8.45 553.35-8.45L553.35-8.45Q555.3-8.5 556.43-9.95 557.55-11.4 557.55-13.75L557.55-13.75 559.85-13.75Q559.85-9.25 558.55-6.1 557.25-2.95 554.88-1.25 552.5 0.45 549.2 0.45L549.2 0.45Q546.35 0.45 544.18-0.85 542-2.15 540.8-4.48 539.6-6.8 539.6-9.95L539.6-9.95 539.6-27.2 549.7-27.2ZM557.55 0L557.55-27.2 567.65-27.2 567.65 0 557.55 0ZM591.55-27.55L591.55-27.55Q595.35-27.55 598.17-25.8 601-24.05 602.57-20.88 604.15-17.7 604.15-13.45L604.15-13.45Q604.15-9.3 602.62-6.2 601.1-3.1 598.32-1.38 595.55 0.35 591.8 0.35L591.8 0.35Q588.5 0.35 586.07-1.35 583.65-3.05 582.32-6.18 581-9.3 581-13.5L581-13.5Q581-17.8 582.27-20.95 583.55-24.1 585.92-25.83 588.3-27.55 591.55-27.55ZM589-19.75L589-19.75Q587.55-19.75 586.45-19 585.35-18.25 584.72-16.88 584.1-15.5 584.1-13.7L584.1-13.7Q584.1-11.9 584.72-10.53 585.35-9.15 586.45-8.4 587.55-7.65 589-7.65L589-7.65Q590.5-7.65 591.62-8.4 592.75-9.15 593.35-10.53 593.95-11.9 593.95-13.7L593.95-13.7Q593.95-15.5 593.35-16.88 592.75-18.25 591.62-19 590.5-19.75 589-19.75ZM574 0L574-37.1 584.1-37.1 584.1 0 574 0ZM614.5-16.1L624.6-16.1Q624.65-17.5 624.15-18.53 623.65-19.55 622.7-20.13 621.75-20.7 620.5-20.7L620.5-20.7Q619-20.7 617.97-19.83 616.95-18.95 616.4-17.45 615.85-15.95 615.85-14.05L615.85-14.05Q615.85-11.85 616.57-10.3 617.3-8.75 618.57-7.93 619.85-7.1 621.55-7.1L621.55-7.1Q624.85-7.1 627.55-9.7L627.55-9.7 632.8-4.55Q630.7-2.2 627.62-0.93 624.55 0.35 620.7 0.35L620.7 0.35Q616.15 0.35 612.87-1.38 609.6-3.1 607.82-6.23 606.05-9.35 606.05-13.5L606.05-13.5Q606.05-17.75 607.85-20.9 609.65-24.05 612.87-25.8 616.1-27.55 620.4-27.55L620.4-27.55Q625.2-27.55 628.45-25.53 631.7-23.5 633.27-19.83 634.85-16.15 634.55-11.15L634.55-11.15 614.5-11.15 614.5-16.1ZM662.29 0L648.89-35.05 659.99-35.05 667.99-10.8 675.99-35.05 686.64-35.05 673.09 0 662.29 0ZM689.49 0L689.49-27.2 699.59-27.2 699.59 0 689.49 0ZM694.59-40.15L694.59-40.15Q696.89-40.15 698.34-38.68 699.79-37.2 699.79-34.95L699.79-34.95Q699.79-32.65 698.34-31.2 696.89-29.75 694.59-29.75L694.59-29.75Q692.34-29.75 690.86-31.2 689.39-32.65 689.39-34.95L689.39-34.95Q689.39-37.2 690.86-38.68 692.34-40.15 694.59-40.15ZM715.94-27.55L715.94-27.55Q719.29-27.55 721.69-25.85 724.09-24.15 725.44-21.05 726.79-17.95 726.79-13.7L726.79-13.7Q726.79-9.4 725.49-6.25 724.19-3.1 721.81-1.38 719.44 0.35 716.19 0.35L716.19 0.35Q712.39 0.35 709.56-1.38 706.74-3.1 705.16-6.3 703.59-9.5 703.59-13.75L703.59-13.75Q703.59-17.95 705.11-21.03 706.64-24.1 709.44-25.83 712.24-27.55 715.94-27.55ZM718.74-19.55L718.74-19.55Q717.24-19.55 716.11-18.8 714.99-18.05 714.39-16.68 713.79-15.3 713.79-13.5L713.79-13.5Q713.79-11.65 714.39-10.3 714.99-8.95 716.11-8.18 717.24-7.4 718.74-7.4L718.74-7.4Q720.24-7.4 721.34-8.18 722.44-8.95 723.04-10.3 723.64-11.65 723.64-13.5L723.64-13.5Q723.64-15.3 723.04-16.68 722.44-18.05 721.34-18.8 720.24-19.55 718.74-19.55ZM723.64 0L723.64-37.1 733.74-37.1 733.74 0 723.64 0ZM746.43-16.1L756.53-16.1Q756.58-17.5 756.08-18.53 755.58-19.55 754.63-20.13 753.68-20.7 752.43-20.7L752.43-20.7Q750.93-20.7 749.91-19.83 748.88-18.95 748.33-17.45 747.78-15.95 747.78-14.05L747.78-14.05Q747.78-11.85 748.51-10.3 749.23-8.75 750.51-7.93 751.78-7.1 753.48-7.1L753.48-7.1Q756.78-7.1 759.48-9.7L759.48-9.7 764.73-4.55Q762.63-2.2 759.56-0.93 756.48 0.35 752.63 0.35L752.63 0.35Q748.08 0.35 744.81-1.38 741.53-3.1 739.76-6.23 737.98-9.35 737.98-13.5L737.98-13.5Q737.98-17.75 739.78-20.9 741.58-24.05 744.81-25.8 748.03-27.55 752.33-27.55L752.33-27.55Q757.13-27.55 760.38-25.53 763.63-23.5 765.21-19.83 766.78-16.15 766.48-11.15L766.48-11.15 746.43-11.15 746.43-16.1ZM783.58-27.55L783.58-27.55Q788.13-27.55 791.53-25.83 794.93-24.1 796.81-20.98 798.68-17.85 798.68-13.6L798.68-13.6Q798.68-9.4 796.81-6.25 794.93-3.1 791.53-1.38 788.13 0.35 783.58 0.35L783.58 0.35Q778.98 0.35 775.58-1.38 772.18-3.1 770.31-6.25 768.43-9.4 768.43-13.6L768.43-13.6Q768.43-17.85 770.31-20.98 772.18-24.1 775.58-25.83 778.98-27.55 783.58-27.55ZM783.58-19.55L783.58-19.55Q782.08-19.55 780.96-18.8 779.83-18.05 779.23-16.68 778.63-15.3 778.63-13.5L778.63-13.5Q778.63-11.65 779.23-10.3 779.83-8.95 780.96-8.2 782.08-7.45 783.58-7.45L783.58-7.45Q785.08-7.45 786.18-8.2 787.28-8.95 787.88-10.3 788.48-11.65 788.48-13.5L788.48-13.5Q788.48-15.3 787.88-16.68 787.28-18.05 786.18-18.8 785.08-19.55 783.58-19.55Z" opacity="1" transform="matrix(1,0,0,1,0,0)" fill="#ffffff" class="wordmark-text-0" data-fill-palette-color="quaternary" id="text-0"></path></svg></g></svg></g></svg></g></svg></g><g></g></svg></g></svg></g><defs></defs></svg><rect width="395.52" height="67.00222109467703" fill="none" stroke="none" visibility="hidden"></rect></g></svg></g></svg>